<?xml version="1.0" encoding="iso-8859-1"?>
<!-- Generator: Adobe Illustrator 18.1.1, SVG Export Plug-In . SVG Version: 6.00 Build 0)  -->
<svg version="1.1" id="Capa_1" xmlns="http://www.w3.org/2000/svg" xmlns:xlink="http://www.w3.org/1999/xlink" x="0px" y="0px"
	 viewBox="0 0 27.495 27.495" style="enable-background:new 0 0 27.495 27.495;" xml:space="preserve">
<g>
	<g id="c132_rewind">
		<path style="fill:#030104;" d="M13.748,0C6.155,0,0,6.156,0,13.748c0,7.593,6.155,13.747,13.748,13.747
			c7.59,0,13.747-6.154,13.747-13.747C27.495,6.156,21.338,0,13.748,0z M21.813,21.439c0,0.142-0.08,0.269-0.201,0.328l-0.162,0.036
			c-0.079,0-0.16-0.028-0.225-0.079l-7.452-5.879v5.594c0,0.142-0.079,0.269-0.203,0.328l-0.159,0.036
			c-0.08,0-0.161-0.028-0.226-0.079l-9.753-7.692c-0.084-0.067-0.137-0.176-0.137-0.284c0-0.11,0.053-0.217,0.137-0.283l9.753-7.691
			c0.108-0.087,0.258-0.104,0.385-0.04c0.124,0.058,0.203,0.185,0.203,0.326v5.592l7.452-5.878c0.111-0.087,0.256-0.104,0.387-0.04
			c0.121,0.058,0.201,0.185,0.201,0.326C21.813,6.06,21.813,21.439,21.813,21.439z"/>
	</g>
</g>
<g>
</g>
<g>
</g>
<g>
</g>
<g>
</g>
<g>
</g>
<g>
</g>
<g>
</g>
<g>
</g>
<g>
</g>
<g>
</g>
<g>
</g>
<g>
</g>
<g>
</g>
<g>
</g>
<g>
</g>
</svg>
