<?xml version="1.0" standalone="no"?>
<!DOCTYPE svg PUBLIC "-//W3C//DTD SVG 20010904//EN"
 "http://www.w3.org/TR/2001/REC-SVG-20010904/DTD/svg10.dtd">
<svg version="1.0" xmlns="http://www.w3.org/2000/svg"
 width="225.000000pt" height="225.000000pt" viewBox="0 0 225.000000 225.000000"
 preserveAspectRatio="xMidYMid meet">

<g transform="translate(0.000000,225.000000) scale(0.100000,-0.100000)"
fill="#000000" stroke="none">
<path d="M1610 2051 c-121 -37 -200 -144 -200 -273 l0 -66 -326 -190 -325
-190 -51 31 c-44 27 -63 33 -128 35 -100 5 -162 -20 -225 -90 -99 -111 -97
-261 4 -371 60 -65 125 -90 221 -85 65 2 84 8 128 35 l51 31 328 -192 328
-192 1 -52 c4 -167 116 -282 275 -282 283 0 371 382 118 509 -93 46 -197 39
-279 -19 l-28 -20 -331 193 -331 192 0 70 0 70 328 191 c272 159 330 189 342
179 48 -40 106 -60 180 -60 66 0 82 4 130 31 30 17 70 50 87 73 142 185 10
454 -221 450 -28 0 -62 -4 -76 -8z"/>
</g>
</svg>
